<mxfile host="app.diagrams.net" modified="2023-12-02T21:44:01.902Z" agent="Mozilla/5.0 (Windows NT 10.0; Win64; x64) AppleWebKit/537.36 (KHTML, like Gecko) Chrome/119.0.0.0 Safari/537.36" etag="JAsKkleIzWJfcHGC9rC1" version="22.1.5" type="device">
  <diagram id="C5RBs43oDa-KdzZeNtuy" name="Page-1">
    <mxGraphModel dx="989" dy="523" grid="1" gridSize="10" guides="1" tooltips="1" connect="1" arrows="1" fold="1" page="1" pageScale="1" pageWidth="827" pageHeight="1169" math="0" shadow="0">
      <root>
        <mxCell id="WIyWlLk6GJQsqaUBKTNV-0" />
        <mxCell id="WIyWlLk6GJQsqaUBKTNV-1" parent="WIyWlLk6GJQsqaUBKTNV-0" />
        <mxCell id="Oi7LgbrdsREK6RAu3Jjd-8" style="edgeStyle=orthogonalEdgeStyle;rounded=0;orthogonalLoop=1;jettySize=auto;html=1;exitX=0.5;exitY=1;exitDx=0;exitDy=0;entryX=0.5;entryY=0;entryDx=0;entryDy=0;" edge="1" parent="WIyWlLk6GJQsqaUBKTNV-1" source="WIyWlLk6GJQsqaUBKTNV-3" target="Oi7LgbrdsREK6RAu3Jjd-0">
          <mxGeometry relative="1" as="geometry" />
        </mxCell>
        <mxCell id="WIyWlLk6GJQsqaUBKTNV-3" value="Display Logo" style="rounded=1;whiteSpace=wrap;html=1;fontSize=12;glass=0;strokeWidth=1;shadow=0;" parent="WIyWlLk6GJQsqaUBKTNV-1" vertex="1">
          <mxGeometry x="354" y="70" width="120" height="40" as="geometry" />
        </mxCell>
        <mxCell id="Oi7LgbrdsREK6RAu3Jjd-7" style="edgeStyle=orthogonalEdgeStyle;rounded=0;orthogonalLoop=1;jettySize=auto;html=1;exitX=0;exitY=0.5;exitDx=0;exitDy=0;entryX=0;entryY=0.5;entryDx=0;entryDy=0;" edge="1" parent="WIyWlLk6GJQsqaUBKTNV-1" source="WIyWlLk6GJQsqaUBKTNV-6" target="Oi7LgbrdsREK6RAu3Jjd-0">
          <mxGeometry relative="1" as="geometry">
            <Array as="points">
              <mxPoint x="160" y="585" />
              <mxPoint x="160" y="173" />
            </Array>
          </mxGeometry>
        </mxCell>
        <mxCell id="Oi7LgbrdsREK6RAu3Jjd-14" value="No" style="edgeLabel;html=1;align=center;verticalAlign=middle;resizable=0;points=[];" vertex="1" connectable="0" parent="Oi7LgbrdsREK6RAu3Jjd-7">
          <mxGeometry x="-0.0296" y="-5" relative="1" as="geometry">
            <mxPoint as="offset" />
          </mxGeometry>
        </mxCell>
        <mxCell id="Oi7LgbrdsREK6RAu3Jjd-15" style="edgeStyle=orthogonalEdgeStyle;rounded=0;orthogonalLoop=1;jettySize=auto;html=1;exitX=1;exitY=0.5;exitDx=0;exitDy=0;entryX=1;entryY=0.5;entryDx=0;entryDy=0;" edge="1" parent="WIyWlLk6GJQsqaUBKTNV-1" source="WIyWlLk6GJQsqaUBKTNV-6" target="Oi7LgbrdsREK6RAu3Jjd-1">
          <mxGeometry relative="1" as="geometry">
            <Array as="points">
              <mxPoint x="640" y="585" />
              <mxPoint x="640" y="255" />
            </Array>
          </mxGeometry>
        </mxCell>
        <mxCell id="Oi7LgbrdsREK6RAu3Jjd-16" value="Yes" style="edgeLabel;html=1;align=center;verticalAlign=middle;resizable=0;points=[];" vertex="1" connectable="0" parent="Oi7LgbrdsREK6RAu3Jjd-15">
          <mxGeometry x="0.0731" y="-2" relative="1" as="geometry">
            <mxPoint as="offset" />
          </mxGeometry>
        </mxCell>
        <mxCell id="WIyWlLk6GJQsqaUBKTNV-6" value="Continue with the Calculated Value" style="rhombus;whiteSpace=wrap;html=1;shadow=0;fontFamily=Helvetica;fontSize=12;align=center;strokeWidth=1;spacing=6;spacingTop=-4;" parent="WIyWlLk6GJQsqaUBKTNV-1" vertex="1">
          <mxGeometry x="364" y="545" width="100" height="80" as="geometry" />
        </mxCell>
        <mxCell id="Oi7LgbrdsREK6RAu3Jjd-9" style="edgeStyle=orthogonalEdgeStyle;rounded=0;orthogonalLoop=1;jettySize=auto;html=1;exitX=0.5;exitY=1;exitDx=0;exitDy=0;entryX=0.5;entryY=0;entryDx=0;entryDy=0;" edge="1" parent="WIyWlLk6GJQsqaUBKTNV-1" source="Oi7LgbrdsREK6RAu3Jjd-0" target="Oi7LgbrdsREK6RAu3Jjd-1">
          <mxGeometry relative="1" as="geometry" />
        </mxCell>
        <mxCell id="Oi7LgbrdsREK6RAu3Jjd-0" value="Input First Number" style="rounded=1;whiteSpace=wrap;html=1;fontSize=12;glass=0;strokeWidth=1;shadow=0;" vertex="1" parent="WIyWlLk6GJQsqaUBKTNV-1">
          <mxGeometry x="354" y="153" width="120" height="40" as="geometry" />
        </mxCell>
        <mxCell id="Oi7LgbrdsREK6RAu3Jjd-10" style="edgeStyle=orthogonalEdgeStyle;rounded=0;orthogonalLoop=1;jettySize=auto;html=1;exitX=0.5;exitY=1;exitDx=0;exitDy=0;entryX=0.5;entryY=0;entryDx=0;entryDy=0;" edge="1" parent="WIyWlLk6GJQsqaUBKTNV-1" source="Oi7LgbrdsREK6RAu3Jjd-1" target="Oi7LgbrdsREK6RAu3Jjd-2">
          <mxGeometry relative="1" as="geometry" />
        </mxCell>
        <mxCell id="Oi7LgbrdsREK6RAu3Jjd-1" value="Input Operator Symbol" style="rounded=1;whiteSpace=wrap;html=1;fontSize=12;glass=0;strokeWidth=1;shadow=0;" vertex="1" parent="WIyWlLk6GJQsqaUBKTNV-1">
          <mxGeometry x="354" y="235" width="120" height="40" as="geometry" />
        </mxCell>
        <mxCell id="Oi7LgbrdsREK6RAu3Jjd-11" style="edgeStyle=orthogonalEdgeStyle;rounded=0;orthogonalLoop=1;jettySize=auto;html=1;exitX=0.5;exitY=1;exitDx=0;exitDy=0;entryX=0.5;entryY=0;entryDx=0;entryDy=0;" edge="1" parent="WIyWlLk6GJQsqaUBKTNV-1" source="Oi7LgbrdsREK6RAu3Jjd-2" target="Oi7LgbrdsREK6RAu3Jjd-3">
          <mxGeometry relative="1" as="geometry" />
        </mxCell>
        <mxCell id="Oi7LgbrdsREK6RAu3Jjd-2" value="Input Second Number" style="rounded=1;whiteSpace=wrap;html=1;fontSize=12;glass=0;strokeWidth=1;shadow=0;" vertex="1" parent="WIyWlLk6GJQsqaUBKTNV-1">
          <mxGeometry x="354" y="318" width="120" height="40" as="geometry" />
        </mxCell>
        <mxCell id="Oi7LgbrdsREK6RAu3Jjd-12" style="edgeStyle=orthogonalEdgeStyle;rounded=0;orthogonalLoop=1;jettySize=auto;html=1;exitX=0.5;exitY=1;exitDx=0;exitDy=0;entryX=0.5;entryY=0;entryDx=0;entryDy=0;" edge="1" parent="WIyWlLk6GJQsqaUBKTNV-1" source="Oi7LgbrdsREK6RAu3Jjd-3" target="Oi7LgbrdsREK6RAu3Jjd-4">
          <mxGeometry relative="1" as="geometry" />
        </mxCell>
        <mxCell id="Oi7LgbrdsREK6RAu3Jjd-3" value="Make calculation" style="rounded=1;whiteSpace=wrap;html=1;fontSize=12;glass=0;strokeWidth=1;shadow=0;" vertex="1" parent="WIyWlLk6GJQsqaUBKTNV-1">
          <mxGeometry x="354" y="400" width="120" height="40" as="geometry" />
        </mxCell>
        <mxCell id="Oi7LgbrdsREK6RAu3Jjd-13" style="edgeStyle=orthogonalEdgeStyle;rounded=0;orthogonalLoop=1;jettySize=auto;html=1;exitX=0.5;exitY=1;exitDx=0;exitDy=0;entryX=0.5;entryY=0;entryDx=0;entryDy=0;" edge="1" parent="WIyWlLk6GJQsqaUBKTNV-1" source="Oi7LgbrdsREK6RAu3Jjd-4" target="WIyWlLk6GJQsqaUBKTNV-6">
          <mxGeometry relative="1" as="geometry" />
        </mxCell>
        <mxCell id="Oi7LgbrdsREK6RAu3Jjd-4" value="Display Result" style="rounded=1;whiteSpace=wrap;html=1;fontSize=12;glass=0;strokeWidth=1;shadow=0;" vertex="1" parent="WIyWlLk6GJQsqaUBKTNV-1">
          <mxGeometry x="354" y="483" width="120" height="40" as="geometry" />
        </mxCell>
      </root>
    </mxGraphModel>
  </diagram>
</mxfile>
